<svg version="1.1" id="Layer_1" xmlns="http://www.w3.org/2000/svg" xmlns:xlink="http://www.w3.org/1999/xlink" x="0px" y="0px"
	 width="100%" viewBox="0 0 405 135" enable-background="new 0 0 405 135" xml:space="preserve">
<path fill="#FEFEFE" opacity="1.000000" stroke="none" 
	d="
M69.000000,136.000000 
	C46.342716,136.000000 23.685436,136.000000 1.021115,136.000000 
	C1.014076,91.028015 1.014076,46.056030 1.014076,1.042022 
	C135.916092,1.042022 270.832184,1.042022 405.874146,1.042022 
	C405.874146,45.897148 405.874146,90.794762 405.874146,136.000000 
	C301.645966,136.000000 197.291641,136.000000 92.614838,135.686401 
	C93.505684,132.480957 94.719017,129.589096 95.855988,126.879211 
	C90.026680,126.879211 85.535446,126.879211 80.763382,126.659203 
	C76.424660,124.898926 72.366753,123.358665 68.104652,121.541367 
	C63.425056,117.548668 58.949665,113.833000 54.378006,109.753998 
	C48.391556,101.075241 44.755566,91.811996 42.730782,81.471771 
	C42.206875,79.355545 41.665821,77.646049 41.085564,75.491417 
	C40.996964,72.360878 40.947571,69.675476 40.953896,66.565666 
	C40.964638,64.431595 40.919670,62.721935 40.943951,60.592003 
	C41.052715,58.469894 41.092232,56.768063 41.391766,54.977928 
	C41.753860,53.930698 41.855938,52.971771 41.990280,51.687119 
	C42.053490,50.926353 42.084431,50.491314 42.440128,49.891884 
	C43.161491,47.820057 43.558090,45.912621 44.030853,43.702232 
	C44.085548,42.983418 44.064087,42.567562 44.308853,42.052406 
	C44.713806,41.636200 44.852528,41.319286 45.157104,40.697136 
	C46.871620,37.851295 48.195305,35.136086 50.008068,32.800465 
	C57.671661,22.926413 68.000755,23.871037 74.404869,33.801178 
	C79.311249,41.408943 80.480865,50.044304 80.659111,58.648823 
	C81.047432,77.395111 81.350777,96.409706 60.808842,106.628479 
	C63.999634,114.811287 67.939308,116.210274 74.632233,111.005341 
	C77.719093,108.604782 80.605240,105.674896 82.806923,102.454803 
	C91.807663,89.290649 93.105652,74.255875 92.430672,58.924099 
	C91.929283,47.535496 90.166306,36.441727 83.399834,26.720093 
	C73.087914,11.904576 54.924839,10.399029 43.516003,23.536747 
	C39.572430,28.077925 35.917351,33.468632 34.048000,39.107018 
	C26.483944,61.921936 28.722692,84.341873 38.991699,105.926750 
	C40.642624,109.396889 43.610840,112.240326 45.937572,115.707115 
	C49.142544,119.411781 52.380054,122.782806 55.777420,126.457108 
	C59.335159,129.108780 62.733044,131.457153 66.369667,133.998383 
	C67.405602,134.794144 68.202797,135.397079 69.000000,136.000000 
M284.475433,69.994591 
	C284.475433,69.994591 284.951782,69.961540 285.554321,69.713799 
	C286.034607,68.800079 286.514923,67.886360 287.570282,66.715347 
	C288.034729,65.473869 288.499176,64.232399 289.262054,62.294868 
	C291.185455,62.848049 293.516541,62.890198 294.961639,64.042969 
	C301.182037,69.004906 300.305817,75.903893 299.927338,82.711586 
	C293.860992,83.206909 288.217285,83.338737 282.683563,84.187592 
	C270.924896,85.991318 264.479218,94.569794 265.180511,106.903313 
	C265.853729,118.743050 274.044830,125.586990 288.654694,126.516785 
	C297.375031,127.071754 306.265503,119.056374 308.366455,108.567558 
	C308.373138,108.041626 308.379791,107.515686 308.697357,106.103317 
	C308.528656,94.047958 308.359985,81.992599 308.092712,69.299942 
	C307.776306,69.017830 307.459900,68.735718 307.336975,67.751823 
	C304.698242,63.855076 302.059540,59.958324 300.311920,56.048744 
	C305.555939,53.692490 310.799957,51.336235 316.239471,49.903702 
	C316.214905,73.384560 316.256500,96.865868 316.096558,120.345802 
	C316.071716,123.997978 317.413086,125.712051 320.910797,125.609138 
	C325.030304,125.487930 324.875275,122.412682 324.871399,119.491669 
	C324.836945,93.512337 324.889923,67.532440 324.706268,41.554203 
	C324.677734,37.520584 325.858337,35.579342 330.835388,36.069756 
	C334.420074,35.715916 334.122131,38.132698 334.119781,40.513115 
	C334.093475,67.159782 334.091797,93.806503 334.117920,120.453171 
	C334.122925,125.574173 336.029358,127.096588 340.379303,125.037292 
	C341.655212,124.433258 342.780823,122.099174 342.820374,120.528954 
	C343.048981,111.445091 342.931976,102.352524 342.931976,92.808640 
	C346.434509,92.808640 349.240112,92.814171 352.045685,92.807655 
	C362.584351,92.783157 366.985504,97.084709 367.053741,107.543129 
	C367.090424,113.167152 367.060242,118.791626 367.060242,124.269875 
	C375.488617,126.409927 375.926849,126.090714 375.936310,118.104736 
	C375.941437,113.775124 376.143738,109.424309 375.795166,105.120476 
	C375.195312,97.714722 373.019470,91.140549 365.368317,87.816338 
	C363.678314,87.082085 362.344177,85.528763 361.214630,84.641907 
	C366.591248,74.445122 371.747406,64.666428 376.945068,54.809032 
	C370.245819,52.630665 367.035797,55.237408 364.627533,60.260761 
	C361.682526,66.403687 358.274078,72.328377 354.969208,78.293777 
	C351.223816,85.054291 351.177155,85.028450 342.909393,83.357964 
	C342.909393,81.499931 342.909607,79.538757 342.909363,77.577583 
	C342.907318,62.255741 342.970612,46.933262 342.822327,31.612841 
	C342.803253,29.642601 341.685913,27.682995 341.094666,24.951910 
	C339.711975,20.142874 339.619049,14.564870 333.517029,11.951583 
	C334.042145,16.970922 334.510925,21.452066 334.399445,26.412691 
	C335.293213,31.049976 331.566101,32.662830 328.028229,34.930840 
	C321.094574,35.280304 325.730713,29.063972 323.512695,26.810171 
	C321.617889,26.810171 319.825012,26.810171 317.901215,26.093132 
	C312.892822,20.085093 319.276917,15.573784 319.764526,9.944271 
	C316.872620,11.938061 313.823151,13.980764 312.492554,16.827015 
	C311.069275,19.871531 311.266266,23.673534 310.671631,27.719250 
	C311.874817,28.321360 313.629059,29.199249 315.692719,30.907078 
	C315.447052,33.518414 315.201385,36.129753 314.919922,38.077473 
	C313.661316,36.404541 312.402740,34.731613 311.246552,33.194817 
	C309.432251,33.812355 308.062500,34.278576 306.160858,34.925831 
	C306.290894,33.381676 305.996399,32.029278 306.537170,31.278460 
	C309.188721,27.597055 307.509125,26.583799 303.870728,25.748888 
	C296.000488,23.942904 287.225464,30.167807 287.086578,38.234333 
	C287.034271,41.273087 287.833069,44.326492 288.338196,48.072529 
	C286.971893,47.660927 285.700104,47.276230 284.427368,46.894676 
	C281.216278,45.932007 278.042358,44.334297 274.785492,44.141571 
	C268.027985,43.741699 264.300079,46.812813 261.990601,53.549038 
	C259.774261,60.013630 260.957672,63.571205 266.920166,68.788445 
	C266.380707,71.113014 264.005463,74.134041 268.321686,74.977066 
	C270.409821,75.384918 272.774628,74.376167 275.749176,74.054039 
	C277.182129,73.382553 278.615051,72.711075 280.730316,72.016060 
	C281.493805,71.648254 282.257294,71.280449 283.457275,70.741356 
	C283.731323,70.560844 283.914398,70.313080 283.998779,69.999084 
	C283.998779,69.999084 283.998108,70.006409 284.475433,69.994591 
M201.906372,124.114014 
	C202.049805,123.786591 202.193237,123.459160 202.709793,122.380424 
	C202.757523,92.578781 202.833206,62.777142 202.832520,32.975502 
	C202.832352,25.914585 202.130188,25.449003 194.137436,26.875921 
	C193.875610,28.259401 193.613785,29.642879 193.211929,31.949516 
	C193.209579,61.216900 193.198135,90.484291 193.232254,119.751640 
	C193.233932,121.190605 193.633438,122.629120 194.213852,124.696533 
	C196.588730,124.621941 198.963608,124.547348 201.338959,124.393250 
	C201.338959,124.393250 201.410797,124.359192 201.906372,124.114014 
M213.244537,26.125311 
	C209.280121,27.571089 211.409409,30.825792 211.420380,33.265804 
	C211.422806,33.803299 214.017090,34.722507 215.448425,34.787014 
	C219.887222,34.987068 224.340744,34.860188 229.305450,34.860188 
	C229.305450,41.082623 229.281967,46.719109 229.309738,52.355343 
	C229.404007,71.485725 229.516388,90.616028 229.423813,110.600243 
	C229.353470,114.069008 229.175842,117.539742 229.239227,121.006065 
	C229.323395,125.608963 231.376526,126.756950 236.812485,125.061607 
	C237.536865,123.285706 238.873779,121.515373 238.889999,119.733017 
	C239.037933,103.484077 238.955872,87.233047 239.644272,71.082329 
	C243.356842,76.231071 247.247528,81.263153 250.721710,86.568024 
	C253.192581,90.340889 255.275803,91.085426 259.014343,88.304901 
	C260.981873,86.841599 262.586304,83.791679 264.538483,83.626175 
	C269.139099,83.236160 268.140503,79.737061 270.484314,76.391151 
	C268.380157,77.329697 267.673431,77.576294 267.033630,77.940460 
	C254.583176,85.027069 258.276947,88.175262 248.392578,74.872673 
	C246.432907,72.235283 243.583649,70.258873 240.718262,67.378677 
	C239.988068,66.235573 239.257874,65.092468 238.723877,63.037979 
	C238.734039,53.721851 238.744202,44.405727 239.589310,34.974125 
	C244.338654,34.879211 249.126129,35.090366 253.814575,34.506447 
	C255.256958,34.326805 257.221375,32.130016 257.525879,30.578085 
	C257.915405,28.592890 257.637360,25.636890 253.036850,26.234325 
	C240.036896,26.251083 227.036926,26.267839 213.244537,26.125311 
M104.290604,58.516453 
	C104.327293,59.322357 104.363983,60.128258 104.182312,61.728779 
	C104.159569,76.375977 103.978851,91.025154 104.162964,105.669754 
	C104.316299,117.866760 111.902863,125.493004 124.425209,126.617828 
	C134.681747,127.539116 144.885193,120.203110 145.679886,109.148888 
	C146.905655,92.098541 146.509811,74.930870 146.766815,57.812439 
	C146.805099,55.262711 145.636276,54.304314 142.968430,54.897072 
	C140.717041,55.397301 137.832108,54.172943 137.891235,58.402748 
	C138.075027,71.548805 138.073196,84.699013 137.978714,97.846428 
	C137.951416,101.646194 137.714294,105.511993 136.961273,109.223328 
	C135.802277,114.935570 131.679504,118.075287 125.994209,118.265350 
	C118.041542,118.531219 113.918854,114.269226 112.715164,103.453186 
	C112.765411,88.626167 112.875565,73.798752 112.777344,58.972721 
	C112.767021,57.414204 111.613937,54.606171 110.842949,54.553696 
	C108.812828,54.415531 106.701073,55.476639 104.334778,56.577213 
	C104.382759,56.959755 104.430733,57.342300 104.290604,58.516453 
M184.889359,120.944122 
	C184.881210,90.978828 184.839828,61.013462 184.908936,31.048347 
	C184.917160,27.490673 183.816193,25.952185 180.016739,25.991137 
	C176.396561,26.028252 174.973190,27.189505 174.985245,30.916788 
	C175.081085,60.548897 175.061783,90.181473 175.016098,119.813805 
	C175.011459,122.814217 175.651932,125.156036 179.015381,125.658775 
	C182.045502,126.111694 184.283920,125.180260 184.889359,120.944122 
M165.970413,68.514526 
	C165.950104,65.515381 165.794418,62.509457 165.944229,59.518833 
	C166.125854,55.893192 165.128204,54.007130 160.952454,53.984966 
	C156.608856,53.961926 156.069946,56.185345 156.080139,59.641552 
	C156.138489,79.470184 156.098938,99.299110 156.098282,119.127930 
	C156.098190,122.157860 155.907227,125.628860 160.143814,125.700569 
	C164.331161,125.771439 166.110138,123.439507 166.055557,118.996918 
	C165.852936,102.503143 165.973068,86.005402 165.970413,68.514526 
M164.498398,44.413368 
	C165.060333,43.810959 166.140961,43.163956 166.093674,42.613914 
	C165.897491,40.331711 166.090424,37.314678 164.744446,36.029346 
	C163.390015,34.735939 159.839325,34.219364 158.246964,35.121109 
	C156.613190,36.046307 155.117401,39.355865 155.545578,41.147705 
	C155.933060,42.769173 158.922836,43.890972 160.917862,44.943680 
	C161.675797,45.343616 162.859863,44.936020 164.498398,44.413368 
z"/>
<path fill="#F26F73" opacity="1.000000" stroke="none" 
	d="
M81.044205,126.879211 
	C85.535446,126.879211 90.026680,126.879211 95.855988,126.879211 
	C94.719017,129.589096 93.505684,132.480957 92.146179,135.686401 
	C84.645744,136.000000 77.291496,136.000000 69.468620,136.000000 
	C68.202797,135.397079 67.405602,134.794144 66.624222,133.751251 
	C71.613701,131.553040 77.682762,132.247894 81.044205,126.879211 
z"/>
<path fill="#6B6C6C" opacity="1.000000" stroke="none" 
	d="
M41.131748,55.066227 
	C41.092232,56.768063 41.052715,58.469894 40.587566,60.669067 
	C38.676197,63.326488 37.661877,65.426971 40.898182,66.990074 
	C40.947571,69.675476 40.996964,72.360878 40.810028,75.705841 
	C41.287010,78.203102 42.000324,80.040794 42.713638,81.878494 
	C44.755566,91.811996 48.391556,101.075241 54.144791,110.021912 
	C51.328598,112.226593 48.649357,113.800026 45.970116,115.373466 
	C43.610840,112.240326 40.642624,109.396889 38.991699,105.926750 
	C28.722692,84.341873 26.483944,61.921936 34.048000,39.107018 
	C35.917351,33.468632 39.572430,28.077925 43.516003,23.536747 
	C54.924839,10.399029 73.087914,11.904576 83.399834,26.720093 
	C90.166306,36.441727 91.929283,47.535496 92.430672,58.924099 
	C93.105652,74.255875 91.807663,89.290649 82.806923,102.454803 
	C80.605240,105.674896 77.719093,108.604782 74.632233,111.005341 
	C67.939308,116.210274 63.999634,114.811287 60.808842,106.628479 
	C81.350777,96.409706 81.047432,77.395111 80.659111,58.648823 
	C80.480865,50.044304 79.311249,41.408943 74.404869,33.801178 
	C68.000755,23.871037 57.671661,22.926413 50.008068,32.800465 
	C48.195305,35.136086 46.871620,37.851295 44.928509,40.821526 
	C44.370247,41.551342 44.206436,41.851524 44.042625,42.151707 
	C44.064087,42.567562 44.085548,42.983418 43.684265,43.759094 
	C42.879471,46.098034 42.497421,48.077152 42.115368,50.056274 
	C42.084431,50.491314 42.053490,50.926353 41.661110,51.732353 
	C41.243698,53.090950 41.187725,54.078590 41.131748,55.066227 
M41.484150,42.586723 
	C41.484150,42.586723 41.418011,42.476223 41.484150,42.586723 
z"/>
<path fill="#6E6F6F" opacity="1.000000" stroke="none" 
	d="
M328.828918,34.923588 
	C331.566101,32.662830 335.293213,31.049976 335.122620,26.242786 
	C337.589661,25.954739 339.333527,25.836597 341.077332,25.718460 
	C341.685913,27.682995 342.803253,29.642601 342.822327,31.612841 
	C342.970612,46.933262 342.907318,62.255741 342.909363,77.577583 
	C342.909607,79.538757 342.909393,81.499931 342.909393,83.357964 
	C351.177155,85.028450 351.223816,85.054291 354.969208,78.293777 
	C358.274078,72.328377 361.682526,66.403687 364.627533,60.260761 
	C367.035797,55.237408 370.245819,52.630665 376.945068,54.809032 
	C371.747406,64.666428 366.591248,74.445122 361.214630,84.641907 
	C362.344177,85.528763 363.678314,87.082085 365.368317,87.816338 
	C373.019470,91.140549 375.195312,97.714722 375.795166,105.120476 
	C376.143738,109.424309 375.941437,113.775124 375.936310,118.104736 
	C375.926849,126.090714 375.488617,126.409927 367.060242,124.269875 
	C367.060242,118.791626 367.090424,113.167152 367.053741,107.543129 
	C366.985504,97.084709 362.584351,92.783157 352.045685,92.807655 
	C349.240112,92.814171 346.434509,92.808640 342.931976,92.808640 
	C342.931976,102.352524 343.048981,111.445091 342.820374,120.528954 
	C342.780823,122.099174 341.655212,124.433258 340.379303,125.037292 
	C336.029358,127.096588 334.122925,125.574173 334.117920,120.453171 
	C334.091797,93.806503 334.093475,67.159782 334.119781,40.513115 
	C334.122131,38.132698 334.420074,35.715916 330.268311,35.759583 
	C329.410492,35.274132 329.119690,35.098858 328.828918,34.923588 
z"/>
<path fill="#6D6E6E" opacity="1.000000" stroke="none" 
	d="
M275.014191,74.008804 
	C272.774628,74.376167 270.409821,75.384918 268.321686,74.977066 
	C264.005463,74.134041 266.380707,71.113014 266.898499,68.041458 
	C267.862396,65.518982 268.847961,63.743504 270.080231,61.729469 
	C274.551300,58.660812 278.775696,55.830704 283.390656,52.871540 
	C289.444305,51.729015 295.129700,50.610275 299.420807,56.061573 
	C302.059540,59.958324 304.698242,63.855076 307.295959,68.424850 
	C307.567047,69.377655 307.879181,69.657448 308.191284,69.937241 
	C308.359985,81.992599 308.528656,94.047958 308.301117,106.623459 
	C307.956604,107.769547 308.008331,108.395500 308.060059,109.021446 
	C306.265503,119.056374 297.375031,127.071754 288.654694,126.516785 
	C274.044830,125.586990 265.853729,118.743050 265.180511,106.903313 
	C264.479218,94.569794 270.924896,85.991318 282.683563,84.187592 
	C288.217285,83.338737 293.860992,83.206909 299.927338,82.711586 
	C300.305817,75.903893 301.182037,69.004906 294.961639,64.042969 
	C293.516541,62.890198 291.185455,62.848049 288.785767,62.689503 
	C287.656281,63.006363 287.003052,62.928585 286.252411,62.531837 
	C281.383057,60.530373 279.027435,63.452755 276.777222,67.070869 
	C276.716736,67.387573 276.885620,67.646637 277.054016,67.947800 
	C277.053528,67.989906 277.115723,67.933105 277.134125,68.307190 
	C276.439758,70.457123 275.726990,72.232964 275.014191,74.008804 
M274.103271,107.846619 
	C276.725311,115.345459 281.172485,118.680153 287.978699,118.251045 
	C294.268219,117.854523 298.791229,113.539963 299.756958,106.136734 
	C300.305817,101.929230 299.856140,97.591461 299.856140,92.785210 
	C295.629395,92.785210 291.677704,92.779755 287.726044,92.786270 
	C277.283386,92.803474 273.720764,96.496178 274.103271,107.846619 
z"/>
<path fill="#6F6F6F" opacity="1.000000" stroke="none" 
	d="
M112.507141,104.322578 
	C113.918854,114.269226 118.041542,118.531219 125.994209,118.265350 
	C131.679504,118.075287 135.802277,114.935570 136.961273,109.223328 
	C137.714294,105.511993 137.951416,101.646194 137.978714,97.846428 
	C138.073196,84.699013 138.075027,71.548805 137.891235,58.402748 
	C137.832108,54.172943 140.717041,55.397301 142.968430,54.897072 
	C145.636276,54.304314 146.805099,55.262711 146.766815,57.812439 
	C146.509811,74.930870 146.905655,92.098541 145.679886,109.148888 
	C144.885193,120.203110 134.681747,127.539116 124.425209,126.617828 
	C111.902863,125.493004 104.316299,117.866760 104.162964,105.669754 
	C103.978851,91.025154 104.159569,76.375977 104.649353,61.213036 
	C104.903831,59.706478 104.691269,58.715660 104.478706,57.724842 
	C104.430733,57.342300 104.382759,56.959755 104.948822,56.306038 
	C110.036720,55.212181 111.193024,57.146523 111.093323,61.505161 
	C110.808380,73.962677 110.933250,86.431587 111.062057,98.894310 
	C111.080803,100.708511 112.002991,102.513390 112.507141,104.322578 
z"/>
<path fill="#717272" opacity="1.000000" stroke="none" 
	d="
M229.621872,109.746361 
	C229.516388,90.616028 229.404007,71.485725 229.309738,52.355343 
	C229.281967,46.719109 229.305450,41.082623 229.305450,34.860188 
	C224.340744,34.860188 219.887222,34.987068 215.448425,34.787014 
	C214.017090,34.722507 211.422806,33.803299 211.420380,33.265804 
	C211.409409,30.825792 209.280121,27.571089 213.753708,26.577820 
	C214.971954,27.353943 215.679581,27.955965 216.390305,27.959631 
	C228.022293,28.019672 239.654984,28.039322 251.286362,27.936316 
	C252.180222,27.928402 253.065369,26.935690 253.954559,26.400719 
	C257.637360,25.636890 257.915405,28.592890 257.525879,30.578085 
	C257.221375,32.130016 255.256958,34.326805 253.814575,34.506447 
	C249.126129,35.090366 244.338654,34.879211 238.739380,35.175755 
	C237.605896,35.944366 237.079819,36.509399 237.075241,37.078625 
	C237.009155,45.304253 236.974197,53.530876 237.066788,61.755753 
	C237.075089,62.492348 238.018539,63.218414 238.527679,63.949371 
	C239.257874,65.092468 239.988068,66.235573 240.776749,67.958115 
	C240.203842,69.352570 239.572433,70.167595 238.941025,70.982620 
	C238.955872,87.233047 239.037933,103.484077 238.889999,119.733017 
	C238.873779,121.515373 237.536865,123.285706 236.363586,124.674637 
	C230.361877,123.685440 231.026001,119.618942 230.941803,115.742378 
	C230.898193,113.735092 230.086548,111.744499 229.621872,109.746361 
M237.517120,67.399612 
	C237.517120,67.399612 237.590744,67.520996 237.517120,67.399612 
z"/>
<path fill="#6D6D6D" opacity="1.000000" stroke="none" 
	d="
M184.873840,121.378700 
	C184.283920,125.180260 182.045502,126.111694 179.015381,125.658775 
	C175.651932,125.156036 175.011459,122.814217 175.016098,119.813805 
	C175.061783,90.181473 175.081085,60.548897 174.985245,30.916788 
	C174.973190,27.189505 176.396561,26.028252 180.016739,25.991137 
	C183.816193,25.952185 184.917160,27.490673 184.908936,31.048347 
	C184.839828,61.013462 184.881210,90.978828 184.873840,121.378700 
z"/>
<path fill="#6D6D6D" opacity="1.000000" stroke="none" 
	d="
M194.811478,26.567539 
	C202.130188,25.449003 202.832352,25.914585 202.832520,32.975502 
	C202.833206,62.777142 202.757523,92.578781 202.244873,122.847214 
	C201.656921,123.662407 201.533859,124.010803 201.410797,124.359192 
	C201.410797,124.359192 201.338959,124.393250 200.877487,124.301338 
	C198.226578,124.162231 196.037155,124.115036 193.847717,124.067841 
	C193.633438,122.629120 193.233932,121.190605 193.232254,119.751640 
	C193.198135,90.484291 193.209579,61.216900 193.624329,31.363337 
	C194.294983,29.373951 194.553223,27.970745 194.811478,26.567539 
z"/>
<path fill="#717171" opacity="1.000000" stroke="none" 
	d="
M328.428589,34.927212 
	C329.119690,35.098858 329.410492,35.274132 329.842316,35.664360 
	C325.858337,35.579342 324.677734,37.520584 324.706268,41.554203 
	C324.889923,67.532440 324.836945,93.512337 324.871399,119.491669 
	C324.875275,122.412682 325.030304,125.487930 320.910797,125.609138 
	C317.413086,125.712051 316.071716,123.997978 316.096558,120.345802 
	C316.256500,96.865868 316.214905,73.384560 316.104187,49.029022 
	C315.631165,45.016590 315.293457,41.878838 314.955719,38.741089 
	C315.201385,36.129753 315.447052,33.518414 315.675110,30.102676 
	C316.449036,28.468904 317.240601,27.639536 318.032166,26.810169 
	C319.825012,26.810171 321.617889,26.810171 323.512695,26.810171 
	C325.730713,29.063972 321.094574,35.280304 328.428589,34.927212 
z"/>
<path fill="#E9EBEA" opacity="1.000000" stroke="none" 
	d="
M314.937805,38.409279 
	C315.293457,41.878838 315.631165,45.016590 316.006409,48.567162 
	C310.799957,51.336235 305.555939,53.692490 299.866364,56.055161 
	C295.129700,50.610275 289.444305,51.729015 283.324677,52.530613 
	C280.984528,51.059433 279.143036,49.730656 277.207275,48.557358 
	C274.416229,46.865658 267.912292,48.838573 266.196869,51.816837 
	C264.109497,55.440872 265.583496,59.555328 269.833557,61.968025 
	C268.847961,63.743504 267.862396,65.518982 266.842407,67.662842 
	C260.957672,63.571205 259.774261,60.013630 261.990601,53.549038 
	C264.300079,46.812813 268.027985,43.741699 274.785492,44.141571 
	C278.042358,44.334297 281.216278,45.932007 284.427368,46.894676 
	C285.700104,47.276230 286.971893,47.660927 288.338196,48.072529 
	C287.833069,44.326492 287.034271,41.273087 287.086578,38.234333 
	C287.225464,30.167807 296.000488,23.942904 303.870728,25.748888 
	C307.509125,26.583799 309.188721,27.597055 306.537170,31.278460 
	C305.996399,32.029278 306.290894,33.381676 306.160858,34.925831 
	C308.062500,34.278576 309.432251,33.812355 311.246552,33.194817 
	C312.402740,34.731613 313.661316,36.404541 314.937805,38.409279 
M292.799072,35.269802 
	C289.726685,42.160007 292.656097,46.809109 302.713348,50.075588 
	C306.235748,51.219604 308.282257,48.693592 310.481567,45.613480 
	C302.690094,45.436775 300.910339,42.280388 303.900238,36.042725 
	C304.455750,34.883701 304.681488,32.395832 304.170197,32.109577 
	C302.442352,31.142220 300.109192,30.112400 298.393097,30.565882 
	C296.382690,31.097141 294.776337,33.157387 292.799072,35.269802 
z"/>
<path fill="#717171" opacity="1.000000" stroke="none" 
	d="
M165.971207,69.011841 
	C165.973068,86.005402 165.852936,102.503143 166.055557,118.996918 
	C166.110138,123.439507 164.331161,125.771439 160.143814,125.700569 
	C155.907227,125.628860 156.098190,122.157860 156.098282,119.127930 
	C156.098938,99.299110 156.138489,79.470184 156.080139,59.641552 
	C156.069946,56.185345 156.608856,53.961926 160.952454,53.984966 
	C165.128204,54.007130 166.125854,55.893192 165.944229,59.518833 
	C165.794418,62.509457 165.950104,65.515381 165.971207,69.011841 
M164.003860,92.579315 
	C163.670868,85.291008 163.282959,78.004616 163.028320,70.713577 
	C162.903229,67.131836 163.252258,63.520275 162.920639,59.965698 
	C162.792694,58.594414 161.372849,57.343658 160.541626,56.037991 
	C159.691696,57.486946 158.121124,58.927032 158.103165,60.386219 
	C157.920715,75.213448 157.991394,90.043785 157.991226,104.873253 
	C157.991165,110.679184 157.991226,116.485107 157.991226,122.390030 
	C160.168991,122.390030 161.898102,122.390030 164.004974,122.390030 
	C164.004974,112.612648 164.004974,103.056061 164.003860,92.579315 
z"/>
<path fill="#E9EBEA" opacity="1.000000" stroke="none" 
	d="
M239.292648,71.032471 
	C239.572433,70.167595 240.203842,69.352570 240.989929,68.257599 
	C243.583649,70.258873 246.432907,72.235283 248.392578,74.872673 
	C258.276947,88.175262 254.583176,85.027069 267.033630,77.940460 
	C267.673431,77.576294 268.380157,77.329697 270.484314,76.391151 
	C268.140503,79.737061 269.139099,83.236160 264.538483,83.626175 
	C262.586304,83.791679 260.981873,86.841599 259.014343,88.304901 
	C255.275803,91.085426 253.192581,90.340889 250.721710,86.568024 
	C247.247528,81.263153 243.356842,76.231071 239.292648,71.032471 
z"/>
<path fill="#F2B777" opacity="1.000000" stroke="none" 
	d="
M45.937569,115.707115 
	C48.649357,113.800026 51.328598,112.226593 54.241058,110.385239 
	C58.949665,113.833000 63.425056,117.548668 67.711273,121.621460 
	C63.553913,123.370331 59.585739,124.762077 55.617569,126.153824 
	C52.380054,122.782806 49.142544,119.411781 45.937569,115.707115 
z"/>
<path fill="#F69573" opacity="1.000000" stroke="none" 
	d="
M55.777420,126.457108 
	C59.585739,124.762077 63.553913,123.370331 67.915466,121.898491 
	C72.366753,123.358665 76.424660,124.898926 80.763382,126.659203 
	C77.682762,132.247894 71.613701,131.553040 66.385483,133.558411 
	C62.733044,131.457153 59.335159,129.108780 55.777420,126.457108 
z"/>
<path fill="#717171" opacity="1.000000" stroke="none" 
	d="
M164.174042,44.654922 
	C162.859863,44.936020 161.675797,45.343616 160.917862,44.943680 
	C158.922836,43.890972 155.933060,42.769173 155.545578,41.147705 
	C155.117401,39.355865 156.613190,36.046307 158.246964,35.121109 
	C159.839325,34.219364 163.390015,34.735939 164.744446,36.029346 
	C166.090424,37.314678 165.897491,40.331711 166.093674,42.613914 
	C166.140961,43.163956 165.060333,43.810959 164.174042,44.654922 
z"/>
<path fill="#616161" opacity="1.000000" stroke="none" 
	d="
M112.611153,103.887878 
	C112.002991,102.513390 111.080803,100.708511 111.062057,98.894310 
	C110.933250,86.431587 110.808380,73.962677 111.093323,61.505161 
	C111.193024,57.146523 110.036720,55.212181 105.092346,56.047493 
	C106.701073,55.476639 108.812828,54.415531 110.842949,54.553696 
	C111.613937,54.606171 112.767021,57.414204 112.777344,58.972721 
	C112.875565,73.798752 112.765411,88.626167 112.611153,103.887878 
z"/>
<path fill="#E9EBEA" opacity="1.000000" stroke="none" 
	d="
M317.966675,26.451649 
	C317.240601,27.639536 316.449036,28.468904 315.520386,29.687706 
	C313.629059,29.199249 311.874817,28.321360 310.671631,27.719250 
	C311.266266,23.673534 311.069275,19.871531 312.492554,16.827015 
	C313.823151,13.980764 316.872620,11.938061 319.764526,9.944271 
	C319.276917,15.573784 312.892822,20.085093 317.966675,26.451649 
z"/>
<path fill="#616161" opacity="1.000000" stroke="none" 
	d="
M253.495697,26.317522 
	C253.065369,26.935690 252.180222,27.928402 251.286362,27.936316 
	C239.654984,28.039322 228.022293,28.019672 216.390305,27.959631 
	C215.679581,27.955965 214.971954,27.353943 214.149933,26.657461 
	C227.036926,26.267839 240.036896,26.251083 253.495697,26.317522 
z"/>
<path fill="#E0E2E1" opacity="1.000000" stroke="none" 
	d="
M341.085999,25.335182 
	C339.333527,25.836597 337.589661,25.954739 335.412781,26.003044 
	C334.510925,21.452066 334.042145,16.970922 333.517029,11.951583 
	C339.619049,14.564870 339.711975,20.142874 341.085999,25.335182 
z"/>
<path fill="#E9EBEA" opacity="1.000000" stroke="none" 
	d="
M277.006622,67.013229 
	C279.027435,63.452755 281.383057,60.530373 285.963104,62.686211 
	C283.244690,65.372559 285.828033,65.945305 286.995209,66.972633 
	C286.514923,67.886360 286.034607,68.800079 285.168762,69.680374 
	C284.521515,69.766769 284.259827,69.886589 283.998108,70.006409 
	C283.998108,70.006409 283.998779,69.999084 283.796936,70.103325 
	C283.334595,70.386360 283.143158,70.621384 283.020782,70.912643 
	C282.257294,71.280449 281.493805,71.648254 280.369873,71.626923 
	C280.022247,70.171112 280.035034,69.104446 280.262939,67.921921 
	C280.749390,67.598091 280.921570,67.327103 281.235107,66.986740 
	C281.753723,66.870110 282.031860,66.759850 282.309998,66.649597 
	C282.227173,66.524117 282.144348,66.398651 282.061523,66.273178 
	C281.709900,66.517113 281.358307,66.761040 280.786804,67.108025 
	C280.288605,67.397171 280.088562,67.646164 279.610168,67.957047 
	C278.540924,67.948402 277.828308,67.940758 277.115723,67.933105 
	C277.115723,67.933105 277.053528,67.989906 277.045288,67.724564 
	C277.037018,67.459229 277.006622,67.013229 277.006622,67.013229 
z"/>
<path fill="#616161" opacity="1.000000" stroke="none" 
	d="
M238.625763,63.493675 
	C238.018539,63.218414 237.075089,62.492348 237.066788,61.755753 
	C236.974197,53.530876 237.009155,45.304253 237.075241,37.078625 
	C237.079819,36.509399 237.605896,35.944366 238.321930,35.233490 
	C238.744202,44.405727 238.734039,53.721851 238.625763,63.493675 
z"/>
<path fill="#616161" opacity="1.000000" stroke="none" 
	d="
M229.522842,110.173302 
	C230.086548,111.744499 230.898193,113.735092 230.941803,115.742378 
	C231.026001,119.618942 230.361877,123.685440 235.953888,124.622864 
	C231.376526,126.756950 229.323395,125.608963 229.239227,121.006065 
	C229.175842,117.539742 229.353470,114.069008 229.522842,110.173302 
z"/>
<path fill="#D3D6D5" opacity="1.000000" stroke="none" 
	d="
M280.047852,68.037781 
	C280.035034,69.104446 280.022247,70.171112 280.028748,71.638687 
	C278.615051,72.711075 277.182129,73.382553 275.381683,74.031418 
	C275.726990,72.232964 276.439758,70.457123 277.134125,68.307190 
	C277.828308,67.940758 278.540924,67.948402 279.628967,67.978470 
	C280.004395,68.000885 280.047852,68.037781 280.047852,68.037781 
z"/>
<path fill="#D3D6D5" opacity="1.000000" stroke="none" 
	d="
M287.282745,66.843994 
	C285.828033,65.945305 283.244690,65.372559 286.060547,63.005188 
	C287.003052,62.928585 287.656281,63.006363 288.636536,63.037529 
	C288.499176,64.232399 288.034729,65.473869 287.282745,66.843994 
z"/>
<path fill="#7A7A7A" opacity="1.000000" stroke="none" 
	d="
M194.030792,124.382187 
	C196.037155,124.115036 198.226578,124.162231 200.877258,124.341095 
	C198.963608,124.547348 196.588730,124.621941 194.030792,124.382187 
z"/>
<path fill="#616161" opacity="1.000000" stroke="none" 
	d="
M42.440128,49.891884 
	C42.497421,48.077152 42.879471,46.098034 43.608105,44.062050 
	C43.558090,45.912621 43.161491,47.820057 42.440128,49.891884 
z"/>
<path fill="#616161" opacity="1.000000" stroke="none" 
	d="
M40.953896,66.565666 
	C37.661877,65.426971 38.676197,63.326488 40.518314,61.089340 
	C40.919670,62.721935 40.964638,64.431595 40.953896,66.565666 
z"/>
<path fill="#616161" opacity="1.000000" stroke="none" 
	d="
M41.391766,54.977928 
	C41.187725,54.078590 41.243698,53.090950 41.628845,52.058079 
	C41.855938,52.971771 41.753860,53.930698 41.391766,54.977928 
z"/>
<path fill="#7A7A7A" opacity="1.000000" stroke="none" 
	d="
M194.474457,26.721729 
	C194.553223,27.970745 194.294983,29.373951 193.694351,30.901758 
	C193.613785,29.642879 193.875610,28.259401 194.474457,26.721729 
z"/>
<path fill="#616161" opacity="1.000000" stroke="none" 
	d="
M42.730782,81.471771 
	C42.000324,80.040794 41.287010,78.203102 40.849232,76.150978 
	C41.665821,77.646049 42.206875,79.355545 42.730782,81.471771 
z"/>
<path fill="#717272" opacity="1.000000" stroke="none" 
	d="
M308.213257,108.794502 
	C308.008331,108.395500 307.956604,107.769547 308.145660,107.066673 
	C308.379791,107.515686 308.373138,108.041626 308.213257,108.794502 
z"/>
<path fill="#616161" opacity="1.000000" stroke="none" 
	d="
M104.384659,58.120647 
	C104.691269,58.715660 104.903831,59.706478 104.758530,60.815727 
	C104.363983,60.128258 104.327293,59.322357 104.384659,58.120647 
z"/>
<path fill="#D3D6D5" opacity="1.000000" stroke="none" 
	d="
M283.239014,70.826996 
	C283.143158,70.621384 283.334595,70.386360 283.800781,70.102814 
	C283.914398,70.313080 283.731323,70.560844 283.239014,70.826996 
z"/>
<path fill="#616161" opacity="1.000000" stroke="none" 
	d="
M44.308853,42.052406 
	C44.206436,41.851524 44.370247,41.551342 44.762657,41.126770 
	C44.852528,41.319286 44.713806,41.636200 44.308853,42.052406 
z"/>
<path fill="#717272" opacity="1.000000" stroke="none" 
	d="
M308.141998,69.618591 
	C307.879181,69.657448 307.567047,69.377655 307.199219,68.775742 
	C307.459900,68.735718 307.776306,69.017830 308.141998,69.618591 
z"/>
<path fill="#D3D6D5" opacity="1.000000" stroke="none" 
	d="
M284.236755,70.000504 
	C284.259827,69.886589 284.521515,69.766769 284.867493,69.804245 
	C284.951782,69.961540 284.475433,69.994591 284.236755,70.000504 
z"/>
<path fill="#7A7A7A" opacity="1.000000" stroke="none" 
	d="
M201.658585,124.236603 
	C201.533859,124.010803 201.656921,123.662407 202.058319,123.222870 
	C202.193237,123.459160 202.049805,123.786591 201.658585,124.236603 
z"/>
<path fill="#616161" opacity="1.000000" stroke="none" 
	d="
M41.451080,42.531471 
	C41.418011,42.476223 41.484150,42.586723 41.451080,42.531471 
z"/>
<path fill="#FDFDFD" opacity="1.000000" stroke="none" 
	d="
M274.044800,107.432587 
	C273.720764,96.496178 277.283386,92.803474 287.726044,92.786270 
	C291.677704,92.779755 295.629395,92.785210 299.856140,92.785210 
	C299.856140,97.591461 300.305817,101.929230 299.756958,106.136734 
	C298.791229,113.539963 294.268219,117.854523 287.978699,118.251045 
	C281.172485,118.680153 276.725311,115.345459 274.044800,107.432587 
z"/>
<path fill="#FDFDFD" opacity="1.000000" stroke="none" 
	d="
M270.080231,61.729473 
	C265.583496,59.555328 264.109497,55.440872 266.196869,51.816837 
	C267.912292,48.838573 274.416229,46.865658 277.207275,48.557358 
	C279.143036,49.730656 280.984528,51.059433 282.934113,52.659668 
	C278.775696,55.830704 274.551300,58.660812 270.080231,61.729473 
z"/>
<path fill="#D3D6D5" opacity="1.000000" stroke="none" 
	d="
M276.777222,67.070869 
	C277.006622,67.013229 277.037018,67.459229 277.045776,67.682465 
	C276.885620,67.646637 276.716736,67.387573 276.777222,67.070869 
z"/>
<path fill="#616161" opacity="1.000000" stroke="none" 
	d="
M237.553925,67.460304 
	C237.590744,67.520996 237.517120,67.399612 237.553925,67.460304 
z"/>
<path fill="#FEFEFE" opacity="1.000000" stroke="none" 
	d="
M292.896912,34.912102 
	C294.776337,33.157387 296.382690,31.097141 298.393097,30.565882 
	C300.109192,30.112400 302.442352,31.142220 304.170197,32.109577 
	C304.681488,32.395832 304.455750,34.883701 303.900238,36.042725 
	C300.910339,42.280388 302.690094,45.436775 310.481567,45.613480 
	C308.282257,48.693592 306.235748,51.219604 302.713348,50.075588 
	C292.656097,46.809109 289.726685,42.160007 292.896912,34.912102 
z"/>
<path fill="#6B6C6C" opacity="1.000000" stroke="none" 
	d="
M164.004425,93.039398 
	C164.004974,103.056061 164.004974,112.612648 164.004974,122.390030 
	C161.898102,122.390030 160.168991,122.390030 157.991226,122.390030 
	C157.991226,116.485107 157.991165,110.679184 157.991226,104.873253 
	C157.991394,90.043785 157.920715,75.213448 158.103165,60.386219 
	C158.121124,58.927032 159.691696,57.486946 160.541626,56.037987 
	C161.372849,57.343658 162.792694,58.594414 162.920639,59.965698 
	C163.252258,63.520275 162.903229,67.131836 163.028320,70.713577 
	C163.282959,78.004616 163.670868,85.291008 164.004425,93.039398 
z"/>
<path fill="#D3D6D5" opacity="1.000000" stroke="none" 
	d="
M281.006683,67.004974 
	C281.358307,66.761040 281.709900,66.517113 282.061523,66.273178 
	C282.144348,66.398651 282.227173,66.524117 282.309998,66.649597 
	C282.031860,66.759850 281.753723,66.870110 281.237793,66.990189 
	C281.000000,67.000000 281.006683,67.004967 281.006683,67.004974 
z"/>
<path fill="#D3D6D5" opacity="1.000000" stroke="none" 
	d="
M279.985596,67.979462 
	C280.088562,67.646164 280.288605,67.397171 280.786804,67.108017 
	C281.006683,67.004967 281.000000,67.000000 280.997314,66.996552 
	C280.921570,67.327103 280.749390,67.598091 280.262939,67.921921 
	C280.047852,68.037781 280.004395,68.000885 279.985596,67.979462 
z"/>
</svg>